# xmcd
#
# Track frame offsets:
#	150
#	13904
#	26705
#	38941
#	50687
#	68869
#	78722
#	95753
#	105887
#	119083
#	131612
#	143134
#	155178
#
# Disc length: 2265 seconds
#
# Revision: 0
# Processed by: cddbd v1.5.1PL0 Copyright (c) Steve Scherf et al.
# Submitted via: EasyCDDAExtractor 4.6.9.1
#
DISCID=bf08d70d
DTITLE=Traylor Parker and The Propane Tanks - Sneakin' Susupicion
DYEAR=2004
DGENRE=Bluegrass
TTITLE0=Blue River
TTITLE1=Sneakin' Suspicion
TTITLE2=Coat Of Darkness
TTITLE3=Henry County Line
TTITLE4=Two Fools
TTITLE5=Make Believe
TTITLE6=Untangle My Mind
TTITLE7=Chainsaw
TTITLE8=Count On You
TTITLE9=Can't Go On Loving You
TTITLE10=Old Bones
TTITLE11=Matterhorn
TTITLE12=Race With The Devil
EXTD=
EXTT0=
EXTT1=
EXTT2=
EXTT3=
EXTT4=
EXTT5=
EXTT6=
EXTT7=
EXTT8=
EXTT9=
EXTT10=
EXTT11=
EXTT12=
PLAYORDER=
